<svg width="19" height="19" viewBox="0 0 19 19" fill="none" xmlns="http://www.w3.org/2000/svg">
<g clip-path="url(#clip0_234_4645)">
<path d="M18.117 9.42898C18.117 8.68648 18.0609 8.14648 17.926 7.58398H9.48828V10.9252H14.4431C14.342 11.7577 13.8027 13.0065 12.6005 13.8502L12.5892 13.9627L15.252 16.0327L15.4318 16.0552C17.1396 14.4802 18.117 12.1627 18.117 9.42898Z" fill="#4285F4"/>
<path d="M9.48835 18.2264C11.9152 18.2264 13.9488 17.4277 15.4431 16.0439L12.6118 13.8389C11.8478 14.3677 10.8366 14.7389 9.49958 14.7389C7.11769 14.7389 5.10656 13.1639 4.3875 11.0039L4.28638 11.0152L1.50001 13.1639L1.46631 13.2652C2.93814 16.2014 5.97168 18.2264 9.48835 18.2264Z" fill="#34A853"/>
<path d="M4.37619 11.0039C4.18519 10.4414 4.07284 9.8452 4.07284 9.22645C4.07284 8.6077 4.18519 8.01145 4.36496 7.44895V7.3252L1.55612 5.1427L1.46624 5.1877C0.848296 6.4027 0.5 7.7752 0.5 9.22645C0.5 10.6777 0.848296 12.0502 1.455 13.2652L4.37619 11.0039Z" fill="#FBBC05"/>
<path d="M9.48835 3.70269C11.1737 3.70269 12.3197 4.43394 12.9601 5.04144L15.4993 2.56644C13.9375 1.11519 11.9152 0.22644 9.48835 0.22644C5.97169 0.22644 2.93814 2.25144 1.45508 5.18769L4.36503 7.44894C5.09533 5.27769 7.10646 3.70269 9.48835 3.70269Z" fill="#EB4335"/>
</g>
<defs>
<clipPath id="clip0_234_4645">
<rect x="0.5" y="0.22644" width="18" height="18" rx="9" fill="white"/>
</clipPath>
</defs>
</svg>
