<svg width="40" height="41" viewBox="0 0 40 41" fill="none" xmlns="http://www.w3.org/2000/svg">
<path d="M2.5 20.2264C2.5 10.5615 10.335 2.72644 20 2.72644C29.665 2.72644 37.5 10.5615 37.5 20.2264C37.5 29.8914 29.665 37.7264 20 37.7264C10.335 37.7264 2.5 29.8914 2.5 20.2264Z" fill="#BADFDE"/>
<path d="M2.5 20.2264C2.5 10.5615 10.335 2.72644 20 2.72644C29.665 2.72644 37.5 10.5615 37.5 20.2264C37.5 29.8914 29.665 37.7264 20 37.7264C10.335 37.7264 2.5 29.8914 2.5 20.2264Z" stroke="#E7F5F5" stroke-width="5"/>
<path d="M26.6666 15.2264L17.4999 24.3931L13.3333 20.2264" stroke="#1C6C64" stroke-width="1.5" stroke-linecap="square" stroke-linejoin="round"/>
</svg>
