<svg width="16" height="16" viewBox="0 0 16 16" fill="none" xmlns="http://www.w3.org/2000/svg">
<g clip-path="url(#clip0_582_10265)">
<path d="M14.3078 12.9424C14.196 13.7746 13.6359 14.4942 12.8522 14.8141C12.4681 14.9737 12.0521 15.0222 11.636 14.9737C11.2363 14.926 10.8358 14.7977 10.4204 14.5584C9.84477 14.2377 9.26833 13.7426 8.59648 13.0066C9.65237 11.7105 10.2922 10.5271 10.5323 9.47118C10.6442 8.9753 10.6606 8.52711 10.6121 8.111C10.548 7.71133 10.404 7.34292 10.1803 7.02304C9.68444 6.30344 8.85225 5.88733 7.92459 5.88733C6.99692 5.88733 6.16474 6.31907 5.66885 7.02304C5.44511 7.34292 5.30122 7.71133 5.23707 8.111C5.17296 8.52711 5.18933 8.99096 5.31685 9.47118C5.557 10.5271 6.21244 11.7269 7.2527 13.0222C6.59648 13.7582 6.00515 14.2541 5.4287 14.574C5.01263 14.8141 4.61292 14.9424 4.21322 14.9901C3.80085 15.0364 3.384 14.9812 2.99772 14.8306C2.21399 14.5106 1.65397 13.7903 1.54211 12.9588C1.49439 12.5591 1.52645 12.1594 1.68603 11.7113C1.73376 11.551 1.8143 11.3914 1.89408 11.1997C2.00594 10.9439 2.1342 10.6717 2.26172 10.3996L2.27812 10.3675C3.38176 7.98348 4.56593 5.55178 5.79785 3.18415L5.84555 3.08796C5.97381 2.84859 6.10133 2.59206 6.22959 2.35195C6.35785 2.09617 6.50178 1.85606 6.67778 1.648C7.01407 1.26397 7.46152 1.05591 7.95741 1.05591C8.45329 1.05591 8.90144 1.26397 9.23703 1.648C9.413 1.85606 9.55692 2.09617 9.68518 2.35195C9.81344 2.59206 9.94096 2.84784 10.0692 3.08721L10.1177 3.18341C11.3332 5.56666 12.5174 7.9984 13.621 10.3824V10.3981C13.7493 10.6538 13.8611 10.9424 13.9886 11.1982C14.0684 11.3906 14.149 11.5502 14.1967 11.7098C14.3242 12.1266 14.3719 12.5263 14.3078 12.9424ZM7.92459 12.19C7.06107 11.102 6.50103 10.0782 6.30866 9.21466C6.22885 8.84629 6.21244 8.52637 6.26092 8.23852C6.293 7.98274 6.38918 7.75829 6.5167 7.56666C6.82096 7.13489 7.33251 6.8627 7.92459 6.8627C8.51666 6.8627 9.04463 7.11922 9.33248 7.56666C9.46074 7.75904 9.55618 7.98274 9.58825 8.23852C9.63596 8.52637 9.62033 8.86266 9.54051 9.21466C9.34889 10.0625 8.78885 11.0864 7.92459 12.19ZM15.14 11.3586C15.0602 11.1669 14.9797 10.9588 14.8999 10.7829C14.7716 10.495 14.6441 10.2228 14.5315 9.96707L14.5158 9.95141C13.4122 7.55174 12.228 5.12 10.9805 2.72033L10.9327 2.62413C10.8045 2.38401 10.677 2.12824 10.5487 1.87246C10.3884 1.58462 10.2288 1.28037 9.97303 0.992531C9.46074 0.351972 8.72474 0 7.941 0C7.14085 0 6.42126 0.351972 5.89255 0.959722C5.65244 1.24756 5.47644 1.55181 5.31685 1.83965C5.18859 2.09542 5.06107 2.3512 4.93281 2.59132L4.88511 2.68677C3.6532 5.08644 2.45336 7.51818 1.34972 9.91785L1.33406 9.94992C1.22221 10.2057 1.09395 10.4779 0.965684 10.7657C0.87993 10.9551 0.800139 11.1475 0.725568 11.3414C0.517517 11.9335 0.453387 12.4935 0.533177 13.0692C0.709163 14.269 1.5093 15.2772 2.61294 15.7247C3.02905 15.9006 3.46081 15.9804 3.90897 15.9804C4.03723 15.9804 4.19682 15.9648 4.32507 15.9484C4.85303 15.8842 5.39666 15.709 5.92463 15.4047C6.58081 15.0371 7.20425 14.5091 7.90818 13.7411C8.61214 14.5091 9.25192 15.0371 9.89173 15.4047C10.4197 15.709 10.9633 15.8842 11.4913 15.9484C11.6195 15.9648 11.7791 15.9804 11.9074 15.9804C12.3555 15.9804 12.803 15.9006 13.2034 15.7247C14.3235 15.2765 15.1072 14.2526 15.2832 13.0692C15.4114 12.5099 15.3473 11.9506 15.14 11.3586Z" fill="#E0565B"/>
</g>
<defs>
<clipPath id="clip0_582_10265">
<rect width="16" height="16" fill="white"/>
</clipPath>
</defs>
</svg>
