<svg width="100" height="19" viewBox="0 0 100 19" fill="none" xmlns="http://www.w3.org/2000/svg">
<g clip-path="url(#clip0_174_112808)">
<path d="M20.1826 5.28191C16.5499 5.28191 13.7114 8.03962 13.7114 11.7314C13.7114 15.4232 16.4782 18.1573 20.1826 18.1573C23.8871 18.1573 26.702 15.376 26.702 11.7078C26.702 8.06322 23.9352 5.28191 20.1826 5.28191ZM20.2071 15.4967C18.1384 15.4967 16.6225 13.89 16.6225 11.7323C16.6225 9.55009 18.1139 7.9443 20.1826 7.9443C22.2759 7.9443 23.7909 9.5746 23.7909 11.7323C23.7909 13.89 22.2759 15.4967 20.2071 15.4967ZM27.4954 8.08773H29.3V17.9185H32.1866V5.52155H27.4954V8.08773ZM6.44675 7.9434C7.96267 7.9434 9.16543 8.87837 9.62202 10.269H12.6775C12.1237 7.29618 9.67013 5.28191 6.47126 5.28191C2.8385 5.28191 0 8.03962 0 11.7323C0 15.425 2.76678 18.1582 6.47126 18.1582C9.59842 18.1582 12.1001 16.1439 12.6539 13.1465H9.62202C9.18903 14.5372 7.98627 15.4967 6.47035 15.4967C4.37711 15.4967 2.91021 13.89 2.91021 11.7323C2.91111 9.55009 4.35442 7.9434 6.44675 7.9434ZM82.3427 10.5332L80.2258 10.2218C79.2155 10.0784 78.4939 9.74253 78.4939 8.95098C78.4939 8.08773 79.4325 7.65655 80.7069 7.65655C82.1021 7.65655 82.9926 8.25566 83.1851 9.23874H85.9755C85.6623 6.74518 83.7379 5.28282 80.7796 5.28282C77.7241 5.28282 75.7035 6.8414 75.7035 9.0472C75.7035 11.1568 77.027 12.3804 79.6966 12.7635L81.8135 13.0748C82.8483 13.2183 83.4256 13.6267 83.4256 14.3938C83.4256 15.3769 82.4153 15.7844 81.0201 15.7844C79.3118 15.7844 78.3495 15.0891 78.2052 14.0343H75.3667C75.6318 16.4562 77.5317 18.1582 80.9956 18.1582C84.1473 18.1582 86.2396 16.7194 86.2396 14.2494C86.2396 12.0436 84.7246 10.8926 82.3427 10.5332ZM30.7433 0.414621C29.6848 0.414621 28.8906 1.18166 28.8906 2.23645C28.8906 3.29124 29.6839 4.05828 30.7433 4.05828C31.8017 4.05828 32.5959 3.29124 32.5959 2.23645C32.5959 1.18166 31.8017 0.414621 30.7433 0.414621ZM73.1056 9.76613C73.1056 7.08105 71.4698 5.28282 68.0059 5.28282C64.7344 5.28282 62.9062 6.93762 62.5449 9.47929H65.4079C65.5523 8.49621 66.322 7.68106 67.9578 7.68106C69.4256 7.68106 70.1472 8.32828 70.1472 9.11982C70.1472 10.151 68.8238 10.4143 67.188 10.5822C64.9749 10.8218 62.2327 11.5889 62.2327 14.4664C62.2327 16.6967 63.8929 18.1346 66.539 18.1346C68.6077 18.1346 69.9067 17.2713 70.5566 15.9043C70.6528 17.127 71.5669 17.9185 72.8423 17.9185H74.5262V15.3533H73.1065V9.76613H73.1056ZM70.2671 12.8833C70.2671 14.5381 68.8238 15.7608 67.0673 15.7608C65.9844 15.7608 65.0703 15.3051 65.0703 14.3466C65.0703 13.1239 66.5381 12.788 67.8851 12.6446C69.1841 12.5247 69.9058 12.237 70.2671 11.6851V12.8833ZM54.9435 5.28191C53.3314 5.28191 51.9843 5.95364 51.0221 7.08014V0.2948H48.1355V17.9185H50.974V16.2882C51.9362 17.4628 53.3078 18.1582 54.9435 18.1582C58.4075 18.1582 61.0299 15.425 61.0299 11.7323C61.0299 8.03962 58.3594 5.28191 54.9435 5.28191ZM54.5105 15.4967C52.4418 15.4967 50.9259 13.89 50.9259 11.7323C50.9259 9.5746 52.4654 7.9443 54.5341 7.9443C56.6274 7.9443 58.0943 9.551 58.0943 11.7323C58.0943 13.89 56.5793 15.4967 54.5105 15.4967ZM41.2313 5.28191C39.355 5.28191 38.1277 6.04895 37.406 7.12825V5.52155H34.543V17.9176H37.4296V11.1804C37.4296 9.28594 38.6324 7.9434 40.4125 7.9434C42.0727 7.9434 43.1066 9.11801 43.1066 10.8209V17.9185H45.9932V10.6058C45.9942 7.48771 44.3829 5.28191 41.2313 5.28191ZM100 11.3247C100 7.77637 97.4021 5.28282 93.9136 5.28282C90.2091 5.28282 87.4905 8.06413 87.4905 11.7323C87.4905 15.5929 90.4016 18.1582 93.9617 18.1582C96.9691 18.1582 99.3265 16.3835 99.9274 13.8664H96.92C96.4871 14.9693 95.4286 15.5929 94.0089 15.5929C92.1562 15.5929 90.761 14.4419 90.4488 12.4276H99.9991V11.3247H100ZM90.6176 10.3652C91.0751 8.63872 92.3741 7.79997 93.8655 7.79997C95.5013 7.79997 96.7521 8.73494 97.0408 10.3652H90.6176Z" fill="#1E51F5"/>
</g>
<defs>
<clipPath id="clip0_174_112808">
<rect width="100" height="17.8634" fill="white" transform="translate(0 0.2948)"/>
</clipPath>
</defs>
</svg>
