<svg width="16" height="16" viewBox="0 0 16 16" fill="none" xmlns="http://www.w3.org/2000/svg">
<path fill-rule="evenodd" clip-rule="evenodd" d="M7.99304 1.62518C4.30732 1.62518 1.31946 4.61305 1.31946 8.29877C1.31946 11.9845 4.30732 14.9724 7.99304 14.9724C11.6788 14.9724 14.6666 11.9845 14.6666 8.29877C14.6666 4.61305 11.6788 1.62518 7.99304 1.62518ZM5.57109 10.0203V11.337H10.4151V10.0203H8.69909V6.30232H5.70975V7.61899H7.29575V10.0203H5.57109ZM7.98442 4.0036C7.49831 4.0036 7.13975 4.38561 7.13975 4.85693C7.13975 5.3233 7.50195 5.7016 7.98442 5.7016C8.4645 5.7016 8.84642 5.3343 8.84642 4.85693C8.84642 4.37455 8.4682 4.0036 7.98442 4.0036Z" fill="#939393"/>
</svg>
