<svg width="24" height="24" viewBox="0 0 24 24" fill="none" xmlns="http://www.w3.org/2000/svg">
<g clip-path="url(#clip0_3033_164)">
<g clip-path="url(#clip1_3033_164)">
<path fill-rule="evenodd" clip-rule="evenodd" d="M2.66667 24H21.3333C22.8061 24 24 22.8061 24 21.3333V2.66667C24 1.19391 22.8061 0 21.3333 0H2.66667C1.19391 0 0 1.19391 0 2.66667V21.3333C0 22.8061 1.19391 24 2.66667 24Z" fill="#0C0C14"/>
<path fill-rule="evenodd" clip-rule="evenodd" d="M20.6668 20.6663H17.1054V14.6004C17.1054 12.9373 16.4734 12.0079 15.1571 12.0079C13.725 12.0079 12.9769 12.975 12.9769 14.6004V20.6663H9.54461V9.11079H12.9769V10.6673C12.9769 10.6673 14.0088 8.75775 16.461 8.75775C18.9121 8.75775 20.6668 10.2545 20.6668 13.3501V20.6663ZM5.44995 7.59768C4.28085 7.59768 3.3335 6.64289 3.3335 5.46534C3.3335 4.28779 4.28085 3.33301 5.44995 3.33301C6.61904 3.33301 7.56583 4.28779 7.56583 5.46534C7.56583 6.64289 6.61904 7.59768 5.44995 7.59768ZM3.67768 20.6663H7.25663V9.11079H3.67768V20.6663Z" fill="#F7F4ED"/>
</g>
</g>
<defs>
<clipPath id="clip0_3033_164">
<rect width="24" height="24" fill="white"/>
</clipPath>
<clipPath id="clip1_3033_164">
<rect width="24" height="24" fill="white"/>
</clipPath>
</defs>
</svg>
