<svg width="800" height="117" viewBox="0 0 800 117" fill="none" xmlns="http://www.w3.org/2000/svg">
<g clip-path="url(#clip0_8_28)">
<path d="M254.387 54.9587C254.387 30.8194 271.582 13.2175 295.061 13.2175C318.539 13.2175 335.734 30.8194 335.734 54.9587C335.734 79.0981 318.539 96.7 295.061 96.7C271.582 96.7 254.387 79.0981 254.387 54.9587ZM322.03 54.9587C322.03 37.7071 310.756 25.1121 295.074 25.1121C279.391 25.1121 268.117 37.7071 268.117 54.9587C268.117 72.2104 279.391 84.6887 295.074 84.6887C310.756 84.6887 322.03 72.2104 322.03 54.9587Z" fill="#0C0C14"/>
<path d="M342.961 37.0066H355.631V44.4651C358.889 39.6787 365.742 36.0727 373.874 36.0727C391.185 36.0727 401.412 48.6677 401.412 66.3863C401.412 84.105 390.72 96.7 373.176 96.7C366.091 96.7 359.226 93.6647 355.631 89.0081V116.987H342.961V37.0066ZM388.742 66.3863C388.742 54.7253 382.006 47.1501 371.779 47.1501C361.553 47.1501 354.817 54.7253 354.817 66.3863C354.817 78.0474 361.553 85.6226 371.779 85.6226C382.006 85.6226 388.742 77.9307 388.742 66.3863Z" fill="#0C0C14"/>
<path d="M433.501 36.0727C452.325 36.0727 462.319 49.8351 462.319 64.1683C462.319 65.9194 462.202 68.3709 462.086 69.4086H417.34C418.504 79.5521 425.007 85.8431 434.302 85.8431C441.969 85.8431 447.438 82.2242 448.951 75.8164L460.923 78.8516C457.781 90.1625 447.787 96.687 434.083 96.687C415.491 96.687 404.916 82.2242 404.916 66.3734C404.916 50.5226 414.909 36.0597 433.501 36.0597V36.0727ZM448.834 59.7451C448.02 51.8197 442.797 46.0994 433.501 46.0994C425.485 46.0994 419.783 51.0025 417.922 59.7451H448.834Z" fill="#0C0C14"/>
<path d="M468.912 37.0066H481.583V46.7999C485.539 40.5088 492.275 36.0727 500.872 36.0727C513.309 36.0727 522.023 44.3483 522.023 57.0601V95.7661H509.353V59.9656C509.353 52.6239 504.815 47.4873 497.381 47.4873C487.504 47.4873 481.583 55.8797 481.583 69.9923V95.7661H468.912V37.0066Z" fill="#0C0C14"/>
<path d="M532.483 14.1514H563.395C578.509 14.1514 588.735 21.7266 588.735 35.1388C588.735 42.7139 583.616 48.7845 578.509 51.1063C586.408 54.0248 592.575 60.6661 592.575 71.7434C592.575 86.79 581.767 95.7661 564.804 95.7661H532.496V14.1514H532.483ZM575.716 36.0727C575.716 29.0812 571.295 25.3455 562.464 25.3455H546.084V46.6831H562.581C571.295 46.6831 575.716 42.9474 575.716 36.0727ZM579.31 71.1727C579.31 62.8971 574.087 58.461 563.162 58.461H546.084V83.7677H563.162C574.087 83.7677 579.31 79.4483 579.31 71.1727Z" fill="#0C0C14"/>
<path d="M599.815 13.2305H612.485V95.779H599.815V13.2305Z" fill="#0C0C14"/>
<path d="M618.937 66.3863C618.937 48.7845 631.49 36.0727 649.151 36.0727C666.812 36.0727 679.365 48.7845 679.365 66.3863C679.365 83.9882 666.695 96.7 649.151 96.7C631.607 96.7 618.937 83.9882 618.937 66.3863ZM666.579 66.3863C666.579 55.0755 659.494 47.1501 649.151 47.1501C638.808 47.1501 631.723 55.0755 631.723 66.3863C631.723 77.6972 638.692 85.6226 649.151 85.6226C659.61 85.6226 666.579 77.6972 666.579 66.3863Z" fill="#0C0C14"/>
<path d="M682.494 66.3863C682.494 48.3175 694.35 36.0727 711.894 36.0727C726.309 36.0727 736.652 43.7646 738.617 55.8927L726.296 58.3442C725.133 51.703 719.677 47.1501 712.23 47.1501C702.12 47.1501 695.617 54.7253 695.617 66.3863C695.617 78.0474 702.236 85.6226 712.23 85.6226C719.664 85.6226 724.9 81.5367 726.296 74.662L738.734 77.1135C736.29 89.3583 726.18 96.7 711.894 96.7C694.35 96.7 682.494 84.4552 682.494 66.3863Z" fill="#0C0C14"/>
<path d="M744.797 95.779V13.2305H757.584V59.1744L781.76 37.0196H798.141L773.848 60.225L799.99 95.792H784.527L764.888 68.7471L757.571 75.6218V95.792H744.784L744.797 95.779Z" fill="#0C0C14"/>
<path d="M55.5597 13.3719C78.8447 13.3719 97.7784 32.3809 97.7784 55.7293C97.7784 79.0777 78.8316 98.0867 55.5597 98.0867C32.2879 98.0867 13.3281 79.0908 13.3281 55.7424C13.3281 32.3941 32.2748 13.3719 55.5597 13.3719ZM55.5597 0C24.8791 0 0 24.9609 0 55.7424C0 86.524 24.8791 111.485 55.5597 111.485C86.2404 111.485 111.119 86.524 111.119 55.7424C111.119 24.9609 86.2404 0 55.5597 0Z" fill="#12B3DF"/>
<path d="M201.306 13.3719V98.0998H116.856V13.3719H201.306ZM214.634 0H103.528V111.472H214.634V0Z" fill="#12B3DF"/>
</g>
<defs>
<clipPath id="clip0_8_28">
<rect width="800" height="117" fill="white"/>
</clipPath>
</defs>
</svg>
