<svg width="180" height="27" viewBox="0 0 180 27" fill="none" xmlns="http://www.w3.org/2000/svg">
<g clip-path="url(#clip0_174_104405)">
<path d="M57.2373 12.3194C57.2373 6.90836 61.1062 2.96277 66.3889 2.96277C71.6715 2.96277 75.5404 6.90836 75.5404 12.3194C75.5404 17.7304 71.6715 21.676 66.3889 21.676C61.1062 21.676 57.2373 17.7304 57.2373 12.3194ZM72.4569 12.3194C72.4569 8.45229 69.9203 5.62902 66.3918 5.62902C62.8632 5.62902 60.3266 8.45229 60.3266 12.3194C60.3266 16.1865 62.8632 18.9836 66.3918 18.9836C69.9203 18.9836 72.4569 16.1865 72.4569 12.3194Z" fill="#0C0C14"/>
<path d="M77.1665 8.29528H80.0173V9.96714C80.7503 8.89424 82.2921 8.08593 84.1218 8.08593C88.0169 8.08593 90.3179 10.9092 90.3179 14.881C90.3179 18.8527 87.9122 21.676 83.9647 21.676C82.3706 21.676 80.826 20.9956 80.0173 19.9518V26.2234H77.1665V8.29528ZM87.4671 14.881C87.4671 12.267 85.9515 10.569 83.6506 10.569C81.3496 10.569 79.834 12.267 79.834 14.881C79.834 17.4949 81.3496 19.1929 83.6506 19.1929C85.9515 19.1929 87.4671 17.4687 87.4671 14.881Z" fill="#0C0C14"/>
<path d="M97.5379 8.08593C101.773 8.08593 104.022 11.1709 104.022 14.3838C104.022 14.7763 103.996 15.3258 103.97 15.5584H93.9017C94.1635 17.8322 95.6267 19.2423 97.7183 19.2423C99.4433 19.2423 100.674 18.4311 101.014 16.9948L103.708 17.6751C103.001 20.2106 100.752 21.6731 97.6688 21.6731C93.4857 21.6731 91.1062 18.4311 91.1062 14.8781C91.1062 11.325 93.3548 8.08303 97.5379 8.08303V8.08593ZM100.988 13.3923C100.805 11.6157 99.6294 10.3335 97.5379 10.3335C95.7343 10.3335 94.4515 11.4326 94.0326 13.3923H100.988Z" fill="#0C0C14"/>
<path d="M105.506 8.29528H108.356V10.4905C109.246 9.08033 110.762 8.08593 112.696 8.08593C115.495 8.08593 117.455 9.94097 117.455 12.7904V21.4666H114.605V13.4417C114.605 11.796 113.584 10.6446 111.911 10.6446C109.689 10.6446 108.356 12.5258 108.356 15.6893V21.4666H105.506V8.29528Z" fill="#0C0C14"/>
<path d="M119.809 3.17211H126.764C130.165 3.17211 132.466 4.87014 132.466 7.87659C132.466 9.57462 131.314 10.9354 130.165 11.4558C131.942 12.11 133.33 13.5987 133.33 16.0818C133.33 19.4546 130.898 21.4666 127.081 21.4666H119.812V3.17211H119.809ZM129.536 8.08593C129.536 6.51874 128.541 5.68136 126.555 5.68136H122.869V10.4643H126.581C128.541 10.4643 129.536 9.62695 129.536 8.08593ZM130.345 15.9539C130.345 14.0988 129.17 13.1044 126.712 13.1044H122.869V18.7771H126.712C129.17 18.7771 130.345 17.8089 130.345 15.9539Z" fill="#0C0C14"/>
<path d="M134.959 2.96568H137.809V21.4695H134.959V2.96568Z" fill="#0C0C14"/>
<path d="M139.261 14.881C139.261 10.9354 142.086 8.08593 146.059 8.08593C150.033 8.08593 152.857 10.9354 152.857 14.881C152.857 18.8266 150.007 21.676 146.059 21.676C142.112 21.676 139.261 18.8266 139.261 14.881ZM149.98 14.881C149.98 12.3455 148.386 10.569 146.059 10.569C143.732 10.569 142.138 12.3455 142.138 14.881C142.138 17.4164 143.706 19.1929 146.059 19.1929C148.413 19.1929 149.98 17.4164 149.98 14.881Z" fill="#0C0C14"/>
<path d="M153.561 14.881C153.561 10.8307 156.229 8.08593 160.176 8.08593C163.42 8.08593 165.747 9.81013 166.189 12.5287L163.417 13.0783C163.155 11.5896 161.927 10.569 160.252 10.569C157.977 10.569 156.514 12.267 156.514 14.881C156.514 17.4949 158.003 19.1929 160.252 19.1929C161.925 19.1929 163.103 18.277 163.417 16.736L166.215 17.2855C165.665 20.0303 163.391 21.676 160.176 21.676C156.229 21.676 153.561 18.9312 153.561 14.881Z" fill="#0C0C14"/>
<path d="M167.58 21.4695V2.96568H170.457V13.2643L175.896 8.29819H179.582L174.116 13.4999L179.998 21.4725H176.519L172.1 15.4101L170.454 16.9512V21.4725H167.577L167.58 21.4695Z" fill="#0C0C14"/>
<path d="M12.5009 2.99741C17.7401 2.99741 22.0001 7.25843 22.0001 12.4921C22.0001 17.7258 17.7371 21.9869 12.5009 21.9869C7.26478 21.9869 2.99882 17.7288 2.99882 12.4951C2.99882 7.26137 7.26184 2.99741 12.5009 2.99741ZM12.5009 0C5.59779 0 0 5.59516 0 12.4951C0 19.395 5.59779 24.9901 12.5009 24.9901C19.4041 24.9901 25.0019 19.395 25.0019 12.4951C25.0019 5.59516 19.4041 0 12.5009 0Z" fill="#0C0C14"/>
<path d="M45.2939 2.99741V21.9898H26.2926V2.99741H45.2939ZM48.2927 0H23.2937V24.9872H48.2927V0Z" fill="#0C0C14"/>
</g>
<defs>
<clipPath id="clip0_174_104405">
<rect width="180" height="26.2264" fill="white"/>
</clipPath>
</defs>
</svg>
